# xmcd
#
# Track frame offsets: 
#        150
#        15545
#        32645
#        50437
#        60028
#        79766
#        96439
#        112494
#        130954
#        150643
#        245168
#
# Disc length: 3555 seconds
#
# Revision: 0
# Processed by: cddbd v1.5.2PL0 Copyright (c) Steve Scherf et al.
# Submitted via: ExactAudioCopy v0.95b4
#
DISCID=8e0de10b
DTITLE=Bright Eyes - Letting Off The Happiness
DYEAR=1998
DGENRE=
TTITLE0=If Winter Ends
TTITLE1=Padraic My Prince
TTITLE2=Contrast And Compare
TTITLE3=The City Has Sex
TTITLE4=The Difference In The Shades
TTITLE5=Touch
TTITLE6=June On The West Coast
TTITLE7=Pull My Hair
TTITLE8=A Poetic Retelling Of An Unfortunate Seduction
TTITLE9=Tereza And Tomas
TTITLE10=Contrast And Compare (Her Space Holiday remix)
EXTD=
EXTT0=
EXTT1=
EXTT2=
EXTT3=
EXTT4=
EXTT5=
EXTT6=
EXTT7=
EXTT8=
EXTT9=
EXTT10=
PLAYORDER=
